{
  "accessors": [
    {
      "bufferView": 0,
      "componentType": 5125,
      "count": 708756,
      "type": "SCALAR"
    },
    {
      "bufferView": 1,
      "componentType": 5126,
      "count": 631872,
      "max": [
        0.0775530189275742,
        0.230856776237488,
        1.0
      ],
      "min": [
        -0.0775530189275742,
        -0.230856776237488,
        -1.0
      ],
      "type": "VEC3"
    },
    {
      "bufferView": 2,
      "componentType": 5126,
      "count": 631872,
      "type": "VEC3"
    },
    {
      "bufferView": 3,
      "componentType": 5126,
      "count": 631872,
      "type": "VEC2"
    }
  ],
  "asset": {
    "generator": "Substance Painter 2019.1.1",
    "version": "2.0"
  },
  "bufferViews": [
    {
      "buffer": 0,
      "byteLength": 2835024,
      "target": 34963
    },
    {
      "buffer": 0,
      "byteLength": 7582464,
      "byteOffset": 2835024,
      "target": 34962
    },
    {
      "buffer": 0,
      "byteLength": 7582464,
      "byteOffset": 10417488,
      "target": 34962
    },
    {
      "buffer": 0,
      "byteLength": 5054976,
      "byteOffset": 17999952,
      "target": 34962
    }
  ],
  "buffers": [
    {
      "byteLength": 23054928,
      "uri": "SniperSPP.bin"
    }
  ],
  "images": [
    {
      "uri": "DefaultMaterial_baseColor.png"
    },
    {
      "uri": "DefaultMaterial_occlusionRoughnessMetallic.png"
    },
    {
      "uri": "DefaultMaterial_normal.png"
    }
  ],
  "materials": [
    {
      "alphaMode": "OPAQUE",
      "name": "DefaultMaterial",
      "normalTexture": {
        "index": 2
      },
      "occlusionTexture": {
        "index": 1
      },
      "pbrMetallicRoughness": {
        "baseColorTexture": {
          "index": 0
        },
        "metallicRoughnessTexture": {
          "index": 1
        }
      }
    }
  ],
  "meshes": [
    {
      "name": "SciFi Sniper",
      "primitives": [
        {
          "attributes": {
            "NORMAL": 2,
            "POSITION": 1,
            "TEXCOORD_0": 3
          },
          "indices": 0,
          "material": 0,
          "mode": 4
        }
      ]
    }
  ],
  "nodes": [
    {
      "children": [
        1
      ],
      "name": "root",
      "scale": [
        11958.17578125,
        11958.17578125,
        11958.17578125
      ],
      "translation": [
        -317.392639160156,
        5816.666015625,
        474.193359375
      ]
    },
    {
      "children": [
        2
      ],
      "name": "SciFi Sniper"
    },
    {
      "mesh": 0,
      "name": "SciFi Sniper"
    }
  ],
  "samplers": [
    {
      "magFilter": 9729,
      "minFilter": 9985,
      "wrapS": 10497,
      "wrapT": 10497
    }
  ],
  "scene": 0,
  "scenes": [
    {
      "name": "Scene",
      "nodes": [
        0
      ]
    }
  ],
  "textures": [
    {
      "sampler": 0,
      "source": 0
    },
    {
      "sampler": 0,
      "source": 1
    },
    {
      "sampler": 0,
      "source": 2
    }
  ]
}