{
  "accessors": [
    {
      "bufferView": 0,
      "componentType": 5125,
      "count": 390036,
      "type": "SCALAR"
    },
    {
      "bufferView": 1,
      "componentType": 5126,
      "count": 340001,
      "max": [
        0.0853003039956093,
        0.359254896640778,
        1.0
      ],
      "min": [
        -0.0853003039956093,
        -0.359254896640778,
        -1.0
      ],
      "type": "VEC3"
    },
    {
      "bufferView": 2,
      "componentType": 5126,
      "count": 340001,
      "type": "VEC3"
    },
    {
      "bufferView": 3,
      "componentType": 5126,
      "count": 340001,
      "type": "VEC2"
    }
  ],
  "asset": {
    "generator": "Substance Painter 2019.1.1",
    "version": "2.0"
  },
  "bufferViews": [
    {
      "buffer": 0,
      "byteLength": 1560144,
      "target": 34963
    },
    {
      "buffer": 0,
      "byteLength": 4080012,
      "byteOffset": 1560144,
      "target": 34962
    },
    {
      "buffer": 0,
      "byteLength": 4080012,
      "byteOffset": 5640156,
      "target": 34962
    },
    {
      "buffer": 0,
      "byteLength": 2720008,
      "byteOffset": 9720168,
      "target": 34962
    }
  ],
  "buffers": [
    {
      "byteLength": 12440176,
      "uri": "PBR - Metallic Roughness.bin"
    }
  ],
  "images": [
    {
      "uri": "DefaultMaterial_baseColor.png"
    },
    {
      "uri": "DefaultMaterial_occlusionRoughnessMetallic.png"
    },
    {
      "uri": "DefaultMaterial_normal.png"
    }
  ],
  "materials": [
    {
      "alphaMode": "OPAQUE",
      "name": "DefaultMaterial",
      "normalTexture": {
        "index": 2
      },
      "occlusionTexture": {
        "index": 1
      },
      "pbrMetallicRoughness": {
        "baseColorTexture": {
          "index": 0
        },
        "metallicRoughnessTexture": {
          "index": 1
        }
      }
    }
  ],
  "meshes": [
    {
      "name": "SciFi SMG",
      "primitives": [
        {
          "attributes": {
            "NORMAL": 2,
            "POSITION": 1,
            "TEXCOORD_0": 3
          },
          "indices": 0,
          "material": 0,
          "mode": 4
        }
      ]
    }
  ],
  "nodes": [
    {
      "children": [
        1
      ],
      "name": "root",
      "scale": [
        7126.23388671875,
        7126.23388671875,
        7126.23388671875
      ],
      "translation": [
        0.0,
        3050.22705078125,
        -378.603515625
      ]
    },
    {
      "children": [
        2
      ],
      "name": "SciFi SMG"
    },
    {
      "mesh": 0,
      "name": "SciFi SMG"
    }
  ],
  "samplers": [
    {
      "magFilter": 9729,
      "minFilter": 9985,
      "wrapS": 10497,
      "wrapT": 10497
    }
  ],
  "scene": 0,
  "scenes": [
    {
      "name": "Scene",
      "nodes": [
        0
      ]
    }
  ],
  "textures": [
    {
      "sampler": 0,
      "source": 0
    },
    {
      "sampler": 0,
      "source": 1
    },
    {
      "sampler": 0,
      "source": 2
    }
  ]
}