{
  "accessors": [
    {
      "bufferView": 0,
      "componentType": 5125,
      "count": 176472,
      "type": "SCALAR"
    },
    {
      "bufferView": 1,
      "componentType": 5126,
      "count": 160079,
      "max": [
        0.107325069606304,
        0.629930973052979,
        0.999999940395355
      ],
      "min": [
        -0.107325069606304,
        -0.629930973052979,
        -1.0
      ],
      "type": "VEC3"
    },
    {
      "bufferView": 2,
      "componentType": 5126,
      "count": 160079,
      "type": "VEC3"
    },
    {
      "bufferView": 3,
      "componentType": 5126,
      "count": 160079,
      "type": "VEC2"
    }
  ],
  "asset": {
    "generator": "Substance Painter 2019.1.1",
    "version": "2.0"
  },
  "bufferViews": [
    {
      "buffer": 0,
      "byteLength": 705888,
      "target": 34963
    },
    {
      "buffer": 0,
      "byteLength": 1920948,
      "byteOffset": 705888,
      "target": 34962
    },
    {
      "buffer": 0,
      "byteLength": 1920948,
      "byteOffset": 2626836,
      "target": 34962
    },
    {
      "buffer": 0,
      "byteLength": 1280632,
      "byteOffset": 4547784,
      "target": 34962
    }
  ],
  "buffers": [
    {
      "byteLength": 5828416,
      "uri": "PistolSSP.bin"
    }
  ],
  "images": [
    {
      "uri": "DefaultMaterial_baseColor.png"
    },
    {
      "uri": "DefaultMaterial_occlusionRoughnessMetallic.png"
    },
    {
      "uri": "DefaultMaterial_normal.png"
    }
  ],
  "materials": [
    {
      "alphaMode": "OPAQUE",
      "name": "DefaultMaterial",
      "normalTexture": {
        "index": 2
      },
      "occlusionTexture": {
        "index": 1
      },
      "pbrMetallicRoughness": {
        "baseColorTexture": {
          "index": 0
        },
        "metallicRoughnessTexture": {
          "index": 1
        }
      }
    }
  ],
  "meshes": [
    {
      "name": "PistolStl",
      "primitives": [
        {
          "attributes": {
            "NORMAL": 2,
            "POSITION": 1,
            "TEXCOORD_0": 3
          },
          "indices": 0,
          "material": 0,
          "mode": 4
        }
      ]
    }
  ],
  "nodes": [
    {
      "children": [
        1
      ],
      "name": "root",
      "scale": [
        3167.94580078125,
        3167.94580078125,
        3167.94580078125
      ],
      "translation": [
        10.0,
        2156.37133789063,
        220.614501953125
      ]
    },
    {
      "children": [
        2
      ],
      "name": "PistolStl"
    },
    {
      "mesh": 0,
      "name": "PistolStl"
    }
  ],
  "samplers": [
    {
      "magFilter": 9729,
      "minFilter": 9985,
      "wrapS": 10497,
      "wrapT": 10497
    }
  ],
  "scene": 0,
  "scenes": [
    {
      "name": "Scene",
      "nodes": [
        0
      ]
    }
  ],
  "textures": [
    {
      "sampler": 0,
      "source": 0
    },
    {
      "sampler": 0,
      "source": 1
    },
    {
      "sampler": 0,
      "source": 2
    }
  ]
}